<?xml version="1.0" encoding="utf-8"?>
<!-- Generator: Adobe Illustrator 16.0.0, SVG Export Plug-In . SVG Version: 6.00 Build 0)  -->
<!DOCTYPE svg PUBLIC "-//W3C//DTD SVG 1.1//EN" "http://www.w3.org/Graphics/SVG/1.1/DTD/svg11.dtd">
<svg version="1.1" id="Layer_1" xmlns="http://www.w3.org/2000/svg" xmlns:xlink="http://www.w3.org/1999/xlink" x="0px" y="0px"
	 width="512px" height="512px" viewBox="0 0 512 512" enable-background="new 0 0 512 512" xml:space="preserve">
<g id="XMLID_1_">
	<g>
		<rect x="480" y="480" fill="#ACDEEF" width="32" height="32"/>
		<rect x="480" y="448" fill="#ACDEEF" width="32" height="32"/>
		<rect x="480" y="416" fill="#ACDEEF" width="32" height="32"/>
		<rect x="480" y="384" fill="#ACDEEF" width="32" height="32"/>
		<rect x="480" y="352" fill="#ACDEEF" width="32" height="32"/>
		<rect x="480" y="320" fill="#ACDEEF" width="32" height="32"/>
		<rect x="480" y="288" fill="#ACDEEF" width="32" height="32"/>
		<rect x="480" y="256" fill="#ACDEEF" width="32" height="32"/>
		<rect x="480" y="224" fill="#ACDEEF" width="32" height="32"/>
		<rect x="480" y="160" fill="#ACDEEF" width="32" height="32"/>
		<rect x="448" y="480" fill="#ACDEEF" width="32" height="32"/>
		<rect x="448" y="448" fill="#ACDEEF" width="32" height="32"/>
		<rect x="448" y="416" fill="#ACDEEF" width="32" height="32"/>
		<rect x="448" y="384" fill="#ACDEEF" width="32" height="32"/>
		<rect x="448" y="352" fill="#ACDEEF" width="32" height="32"/>
		<rect x="448" y="320" fill="#ACDEEF" width="32" height="32"/>
		<rect x="448" y="288" fill="#ACDEEF" width="32" height="32"/>
		<rect x="448" y="256" fill="#ACDEEF" width="32" height="32"/>
		<rect x="448" y="224" fill="#ACDEEF" width="32" height="32"/>
		<rect x="448" y="160" fill="#ACDEEF" width="32" height="32"/>
		<rect x="416" y="352" fill="#ACDEEF" width="32" height="32"/>
		<rect x="416" y="320" fill="#ACDEEF" width="32" height="32"/>
		<rect x="416" y="288" fill="#ACDEEF" width="32" height="32"/>
		<rect x="416" y="256" fill="#ACDEEF" width="32" height="32"/>
		<rect x="416" y="224" fill="#ACDEEF" width="32" height="32"/>
		<rect x="416" y="160" fill="#ACDEEF" width="32" height="32"/>
		<rect x="384" y="352" fill="#ACDEEF" width="32" height="32"/>
		<rect x="384" y="320" fill="#ACDEEF" width="32" height="32"/>
		<rect x="384" y="288" fill="#ACDEEF" width="32" height="32"/>
		<rect x="384" y="256" fill="#ACDEEF" width="32" height="32"/>
		<rect x="384" y="224" fill="#ACDEEF" width="32" height="32"/>
		<rect x="384" y="160" fill="#ACDEEF" width="32" height="32"/>
		<rect x="352" y="352" fill="#ACDEEF" width="32" height="32"/>
		<rect x="352" y="320" fill="#ACDEEF" width="32" height="32"/>
		<rect x="352" y="288" fill="#ACDEEF" width="32" height="32"/>
		<rect x="352" y="256" fill="#ACDEEF" width="32" height="32"/>
		<rect x="352" y="224" fill="#ACDEEF" width="32" height="32"/>
		<rect x="352" y="160" fill="#ACDEEF" width="32" height="32"/>
		<rect x="320" y="480" fill="#ACDEEF" width="32" height="32"/>
		<rect x="320" y="448" fill="#ACDEEF" width="32" height="32"/>
		<rect x="320" y="416" fill="#ACDEEF" width="32" height="32"/>
		<rect x="320" y="384" fill="#ACDEEF" width="32" height="32"/>
		<rect x="320" y="352" fill="#ACDEEF" width="32" height="32"/>
		<rect x="320" y="320" fill="#ACDEEF" width="32" height="32"/>
		<rect x="320" y="288" fill="#ACDEEF" width="32" height="32"/>
		<rect x="320" y="256" fill="#ACDEEF" width="32" height="32"/>
		<rect x="320" y="224" fill="#ACDEEF" width="32" height="32"/>
		<rect x="320" y="160" fill="#ACDEEF" width="32" height="32"/>
		<rect x="288" y="480" fill="#ACDEEF" width="32" height="32"/>
		<rect x="288" y="448" fill="#ACDEEF" width="32" height="32"/>
		<rect x="288" y="416" fill="#ACDEEF" width="32" height="32"/>
		<rect x="288" y="384" fill="#ACDEEF" width="32" height="32"/>
		<rect x="288" y="352" fill="#ACDEEF" width="32" height="32"/>
		<rect x="288" y="320" fill="#ACDEEF" width="32" height="32"/>
		<rect x="288" y="288" fill="#ACDEEF" width="32" height="32"/>
		<rect x="288" y="256" fill="#ACDEEF" width="32" height="32"/>
		<rect x="288" y="224" fill="#ACDEEF" width="32" height="32"/>
		<rect x="288" y="160" fill="#ACDEEF" width="32" height="32"/>
		<rect x="224" y="480" fill="#ACDEEF" width="32" height="32"/>
		<rect x="224" y="448" fill="#ACDEEF" width="32" height="32"/>
		<rect x="224" y="416" fill="#ACDEEF" width="32" height="32"/>
		<rect x="224" y="384" fill="#ACDEEF" width="32" height="32"/>
		<rect x="224" y="352" fill="#ACDEEF" width="32" height="32"/>
		<rect x="224" y="320" fill="#ACDEEF" width="32" height="32"/>
		<rect x="224" y="288" fill="#ACDEEF" width="32" height="32"/>
		<rect x="224" y="256" fill="#ACDEEF" width="32" height="32"/>
		<rect x="224" y="224" fill="#ACDEEF" width="32" height="32"/>
		<rect x="224" y="192" fill="#ACDEEF" width="32" height="32"/>
		<rect x="224" y="160" fill="#ACDEEF" width="32" height="32"/>
		<rect x="224" y="128" fill="#ACDEEF" width="32" height="32"/>
		<rect x="224" y="96" fill="#ACDEEF" width="32" height="32"/>
		<rect x="224" y="64" fill="#ACDEEF" width="32" height="32"/>
		<rect x="224" y="32" fill="#ACDEEF" width="32" height="32"/>
		<rect x="224" fill="#ACDEEF" width="32" height="32"/>
		<rect x="192" y="480" fill="#ACDEEF" width="32" height="32"/>
		<rect x="192" y="448" fill="#ACDEEF" width="32" height="32"/>
		<rect x="192" y="416" fill="#ACDEEF" width="32" height="32"/>
		<rect x="192" y="384" fill="#ACDEEF" width="32" height="32"/>
		<rect x="192" y="288" fill="#ACDEEF" width="32" height="32"/>
		<rect x="192" y="256" fill="#ACDEEF" width="32" height="32"/>
		<rect x="192" y="160" fill="#ACDEEF" width="32" height="32"/>
		<rect x="192" y="128" fill="#ACDEEF" width="32" height="32"/>
		<rect x="192" y="32" fill="#ACDEEF" width="32" height="32"/>
		<rect x="192" fill="#ACDEEF" width="32" height="32"/>
		<rect x="160" y="480" fill="#ACDEEF" width="32" height="32"/>
		<rect x="160" y="448" fill="#ACDEEF" width="32" height="32"/>
		<rect x="160" y="416" fill="#ACDEEF" width="32" height="32"/>
		<rect x="160" y="384" fill="#ACDEEF" width="32" height="32"/>
		<rect x="160" y="288" fill="#ACDEEF" width="32" height="32"/>
		<rect x="160" y="256" fill="#ACDEEF" width="32" height="32"/>
		<rect x="160" y="160" fill="#ACDEEF" width="32" height="32"/>
		<rect x="160" y="128" fill="#ACDEEF" width="32" height="32"/>
		<rect x="160" y="32" fill="#ACDEEF" width="32" height="32"/>
		<rect x="160" fill="#ACDEEF" width="32" height="32"/>
		<rect x="128" y="480" fill="#ACDEEF" width="32" height="32"/>
		<rect x="128" y="448" fill="#ACDEEF" width="32" height="32"/>
		<rect x="128" y="416" fill="#ACDEEF" width="32" height="32"/>
		<rect x="128" y="384" fill="#ACDEEF" width="32" height="32"/>
		<rect x="128" y="352" fill="#ACDEEF" width="32" height="32"/>
		<rect x="128" y="320" fill="#ACDEEF" width="32" height="32"/>
		<rect x="128" y="288" fill="#ACDEEF" width="32" height="32"/>
		<rect x="128" y="256" fill="#ACDEEF" width="32" height="32"/>
		<rect x="128" y="224" fill="#ACDEEF" width="32" height="32"/>
		<rect x="128" y="192" fill="#ACDEEF" width="32" height="32"/>
		<rect x="128" y="160" fill="#ACDEEF" width="32" height="32"/>
		<rect x="128" y="128" fill="#ACDEEF" width="32" height="32"/>
		<rect x="128" y="96" fill="#ACDEEF" width="32" height="32"/>
		<rect x="128" y="64" fill="#ACDEEF" width="32" height="32"/>
		<rect x="128" y="32" fill="#ACDEEF" width="32" height="32"/>
		<rect x="128" fill="#ACDEEF" width="32" height="32"/>
		<rect x="96" y="480" fill="#ACDEEF" width="32" height="32"/>
		<rect x="96" y="448" fill="#ACDEEF" width="32" height="32"/>
		<rect x="96" y="416" fill="#ACDEEF" width="32" height="32"/>
		<rect x="96" y="384" fill="#ACDEEF" width="32" height="32"/>
		<rect x="96" y="352" fill="#ACDEEF" width="32" height="32"/>
		<rect x="96" y="320" fill="#ACDEEF" width="32" height="32"/>
		<rect x="96" y="288" fill="#ACDEEF" width="32" height="32"/>
		<rect x="96" y="256" fill="#ACDEEF" width="32" height="32"/>
		<rect x="96" y="224" fill="#ACDEEF" width="32" height="32"/>
		<rect x="96" y="192" fill="#ACDEEF" width="32" height="32"/>
		<rect x="96" y="160" fill="#ACDEEF" width="32" height="32"/>
		<rect x="96" y="128" fill="#ACDEEF" width="32" height="32"/>
		<rect x="96" y="96" fill="#ACDEEF" width="32" height="32"/>
		<rect x="96" y="64" fill="#ACDEEF" width="32" height="32"/>
		<rect x="96" y="32" fill="#ACDEEF" width="32" height="32"/>
		<rect x="96" fill="#ACDEEF" width="32" height="32"/>
		<rect x="64" y="480" fill="#ACDEEF" width="32" height="32"/>
		<rect x="64" y="448" fill="#ACDEEF" width="32" height="32"/>
		<rect x="64" y="416" fill="#ACDEEF" width="32" height="32"/>
		<rect x="64" y="384" fill="#ACDEEF" width="32" height="32"/>
		<rect x="64" y="288" fill="#ACDEEF" width="32" height="32"/>
		<rect x="64" y="256" fill="#ACDEEF" width="32" height="32"/>
		<rect x="64" y="160" fill="#ACDEEF" width="32" height="32"/>
		<rect x="64" y="128" fill="#ACDEEF" width="32" height="32"/>
		<rect x="64" y="32" fill="#ACDEEF" width="32" height="32"/>
		<rect x="64" fill="#ACDEEF" width="32" height="32"/>
		<rect x="32" y="480" fill="#ACDEEF" width="32" height="32"/>
		<rect x="32" y="448" fill="#ACDEEF" width="32" height="32"/>
		<rect x="32" y="416" fill="#ACDEEF" width="32" height="32"/>
		<rect x="32" y="384" fill="#ACDEEF" width="32" height="32"/>
		<rect x="32" y="288" fill="#ACDEEF" width="32" height="32"/>
		<rect x="32" y="256" fill="#ACDEEF" width="32" height="32"/>
		<rect x="32" y="160" fill="#ACDEEF" width="32" height="32"/>
		<rect x="32" y="128" fill="#ACDEEF" width="32" height="32"/>
		<rect x="32" y="32" fill="#ACDEEF" width="32" height="32"/>
		<rect x="32" fill="#ACDEEF" width="32" height="32"/>
		<rect x="0" y="480" fill="#ACDEEF" width="32" height="32"/>
		<rect x="0" y="448" fill="#ACDEEF" width="32" height="32"/>
		<rect x="0" y="416" fill="#ACDEEF" width="32" height="32"/>
		<rect x="0" y="384" fill="#ACDEEF" width="32" height="32"/>
		<rect x="0" y="352" fill="#ACDEEF" width="32" height="32"/>
		<rect x="0" y="320" fill="#ACDEEF" width="32" height="32"/>
		<rect x="0" y="288" fill="#ACDEEF" width="32" height="32"/>
		<rect x="0" y="256" fill="#ACDEEF" width="32" height="32"/>
		<rect x="0" y="224" fill="#ACDEEF" width="32" height="32"/>
		<rect x="0" y="192" fill="#ACDEEF" width="32" height="32"/>
		<rect x="0" y="160" fill="#ACDEEF" width="32" height="32"/>
		<rect x="0" y="128" fill="#ACDEEF" width="32" height="32"/>
		<rect x="0" y="96" fill="#ACDEEF" width="32" height="32"/>
		<rect x="0" y="64" fill="#ACDEEF" width="32" height="32"/>
		<rect x="0" y="32" fill="#ACDEEF" width="32" height="32"/>
		<rect x="0" fill="#ACDEEF" width="32" height="32"/>
	</g>
	<g>
		<polyline fill="none" stroke="#B35047" points="64,320 64,352 64,384 		"/>
		<polyline fill="none" stroke="#B35047" points="64,192 64,224 64,256 		"/>
		<polyline fill="none" stroke="#B35047" points="64,64 64,96 64,128 		"/>
		<polyline fill="none" stroke="#B35047" points="192,320 192,352 192,384 		"/>
		<polyline fill="none" stroke="#B35047" points="192,192 192,224 192,256 		"/>
		<polyline fill="none" stroke="#B35047" points="192,64 192,96 192,128 		"/>
		<line fill="none" stroke="#B35047" x1="288" y1="192" x2="288" y2="224"/>
		<polyline fill="none" stroke="#B35047" points="288,0 288,32 288,64 288,96 288,128 288,160 		"/>
		<line fill="none" stroke="#B35047" x1="320" y1="192" x2="320" y2="224"/>
		<polyline fill="none" stroke="#B35047" points="320,0 320,32 320,64 320,96 320,128 320,160 		"/>
		<line fill="none" stroke="#B35047" x1="352" y1="192" x2="352" y2="224"/>
		<polyline fill="none" stroke="#B35047" points="352,0 352,32 352,64 352,96 352,128 352,160 		"/>
		<polyline fill="none" stroke="#B35047" points="384,384 384,416 384,448 384,480 384,512 		"/>
		<line fill="none" stroke="#B35047" x1="384" y1="192" x2="384" y2="224"/>
		<polyline fill="none" stroke="#B35047" points="384,0 384,32 384,64 384,96 384,128 384,160 		"/>
		<polyline fill="none" stroke="#B35047" points="416,384 416,416 416,448 416,480 416,512 		"/>
		<line fill="none" stroke="#B35047" x1="416" y1="192" x2="416" y2="224"/>
		<polyline fill="none" stroke="#B35047" points="416,0 416,32 416,64 416,96 416,128 416,160 		"/>
		<line fill="none" stroke="#B35047" x1="448" y1="192" x2="448" y2="224"/>
		<polyline fill="none" stroke="#B35047" points="448,0 448,32 448,64 448,96 448,128 448,160 		"/>
		<line fill="none" stroke="#B35047" x1="480" y1="192" x2="480" y2="224"/>
		<polyline fill="none" stroke="#B35047" points="480,0 480,32 480,64 480,96 480,128 480,160 		"/>
		<polyline fill="none" stroke="#B35047" points="256,32 288,32 320,32 352,32 384,32 416,32 448,32 480,32 512,32 		"/>
		<polyline fill="none" stroke="#B35047" points="256,64 288,64 320,64 352,64 384,64 416,64 448,64 480,64 512,64 		"/>
		<polyline fill="none" stroke="#B35047" points="256,96 288,96 320,96 352,96 384,96 416,96 448,96 480,96 512,96 		"/>
		<polyline fill="none" stroke="#B35047" points="160,96 192,96 224,96 		"/>
		<polyline fill="none" stroke="#B35047" points="32,96 64,96 96,96 		"/>
		<polyline fill="none" stroke="#B35047" points="256,128 288,128 320,128 352,128 384,128 416,128 448,128 480,128 512,128 		"/>
		<line fill="none" stroke="#B35047" x1="256" y1="160" x2="288" y2="160"/>
		<line fill="none" stroke="#B35047" x1="256" y1="192" x2="288" y2="192"/>
		<line fill="none" stroke="#B35047" x1="256" y1="224" x2="288" y2="224"/>
		<polyline fill="none" stroke="#B35047" points="160,224 192,224 224,224 		"/>
		<polyline fill="none" stroke="#B35047" points="32,224 64,224 96,224 		"/>
		<line fill="none" stroke="#B35047" x1="256" y1="256" x2="288" y2="256"/>
		<line fill="none" stroke="#B35047" x1="256" y1="288" x2="288" y2="288"/>
		<line fill="none" stroke="#B35047" x1="256" y1="320" x2="288" y2="320"/>
		<line fill="none" stroke="#B35047" x1="256" y1="352" x2="288" y2="352"/>
		<polyline fill="none" stroke="#B35047" points="160,352 192,352 224,352 		"/>
		<polyline fill="none" stroke="#B35047" points="32,352 64,352 96,352 		"/>
		<line fill="none" stroke="#B35047" x1="256" y1="384" x2="288" y2="384"/>
		<polyline fill="none" stroke="#B35047" points="352,416 384,416 416,416 448,416 		"/>
		<line fill="none" stroke="#B35047" x1="256" y1="416" x2="288" y2="416"/>
		<polyline fill="none" stroke="#B35047" points="352,448 384,448 416,448 448,448 		"/>
		<line fill="none" stroke="#B35047" x1="256" y1="448" x2="288" y2="448"/>
		<polyline fill="none" stroke="#B35047" points="352,480 384,480 416,480 448,480 		"/>
		<line fill="none" stroke="#B35047" x1="256" y1="480" x2="288" y2="480"/>
		<line fill="none" stroke="#B35047" x1="288" y1="512" x2="256" y2="512"/>
		<polyline fill="none" stroke="#B35047" points="448,512 416,512 384,512 352,512 		"/>
		<line fill="none" stroke="#B35047" x1="512" y1="192" x2="512" y2="224"/>
		<polyline fill="none" stroke="#B35047" points="256,0 288,0 320,0 352,0 384,0 416,0 448,0 480,0 512,0 512,32 512,64 512,96 
			512,128 512,160 		"/>
	</g>
</g>
</svg>
