<svg xmlns="http://www.w3.org/2000/svg" xmlns:xlink="http://www.w3.org/1999/xlink" version="1.0" x="0px" y="0px" width="792px" height="612px" viewBox="0 0 792 612" enable-background="new 0 0 792 612" xml:space="preserve"><style>.style0{fill:	#E44F26;}.style1{fill:	#F1662A;}.style2{fill:	#EBEBEB;}.style3{fill:	#010101;}.style4{fill:	#FFFFFF;}.style5{fill:	#131313;}.style6{fill:	#1572B6;}.style7{fill:	#33A9DC;}</style><g><polygon points="75,467 48,163 345,163 318,467 196,500" class="style0"/><polygon points="197,475 295,447 318,188 197,188" class="style1"/><polygon points="197,301 147,301 144,262 197,262 197,225 196,225 103,225 104,235 113,338 197,338" class="style2"/><polygon points="197,397 196,397 155,386 152,356 132,356 115,356 120,415 196,436 197,436" class="style2"/><path d="M75.988 81.135h18.924v18.696h17.311V81.135h18.925v56.618h-18.924v-18.958h-17.31v18.958H75.988 L75.988 81.135L75.988 81.135z" class="style3"/><path d="M156.032 99.91h-16.66V81.135h52.252V99.91h-16.667v37.843h-18.924V99.91H156.032z" class="style3"/><path d="M199.917 81.135h19.733l12.137 19.894l12.127-19.894h19.739v56.618h-18.846V109.69l-13.021 20.13h-0.325 l-13.028-20.13v28.063h-18.517V81.135z" class="style3"/><path d="M273.071 81.135H292v37.903h26.612v18.714h-45.542V81.135z" class="style3"/><polygon points="196,301 196,338 242,338 238,386 196,397 196,436 273,415 273,409 282,311 283,301 273,301" class="style4"/><polygon points="196,225 196,248 196,262 196,262 286,262 286,262 286,262 287,254 289,235 290,225" class="style4"/></g><g><path d="M685.164 96.681h-24.688l25.674 27.859v13.261h-52.882v-15.526h25.669l-25.669-27.86v-13.28h51.896V96.681 L685.164 96.681z M622.786 96.681h-24.688l25.673 27.859v13.261h-52.882v-15.526h25.672l-25.672-27.86v-13.28h51.897V96.681z M561.018 97.312h-26.64v24.313h26.64v16.176h-45.574V81.135h45.574V97.312z" class="style5"/></g><polygon points="479,467 452,163 749,163 722,467 600,501" class="style6"/><polygon points="600,475 699,447 722,188 600,188" class="style7"/><g><polygon points="600,298 650,298 653,260 600,260 600,223 600,223 694,223 693,233 684,335 600,335" class="style4"/><polygon points="601,395 600,395 559,384 556,354 536,354 519,354 524,412 600,433 601,433" class="style2"/><polygon points="646,334 642,384 600,395 600,433 677,412 677,406 684,334" class="style4"/><polygon points="600,223 600,246 600,260 600,260 511,260 511,260 510,260 510,251 508,233 507,223" class="style2"/><polygon points="600,298 600,321 600,335 600,335 559,335 559,335 559,335 559,327 557,308 556,298" class="style2"/></g></svg>